<svg width="206" height="42" viewBox="0 0 206 42" fill="none" xmlns="http://www.w3.org/2000/svg">
<path d="M166.123 34V23.8182H169.563C170.358 23.8182 171.011 23.9541 171.522 24.2259C172.032 24.4943 172.41 24.8639 172.655 25.3345C172.901 25.8052 173.023 26.3404 173.023 26.9403C173.023 27.5402 172.901 28.0722 172.655 28.5362C172.41 29.0002 172.034 29.3648 171.527 29.63C171.02 29.8918 170.372 30.0227 169.583 30.0227H166.799V28.9091H169.543C170.087 28.9091 170.524 28.8295 170.856 28.6705C171.19 28.5114 171.432 28.286 171.581 27.9943C171.734 27.6993 171.81 27.348 171.81 26.9403C171.81 26.5327 171.734 26.1764 171.581 25.8715C171.429 25.5665 171.185 25.3312 170.851 25.1655C170.516 24.9965 170.073 24.9119 169.523 24.9119H167.356V34H166.123ZM170.915 29.4261L173.421 34H171.989L169.523 29.4261H170.915Z" fill="white"/>
<path d="M178.038 34.1591C177.302 34.1591 176.668 33.9967 176.134 33.6719C175.604 33.3438 175.195 32.8864 174.906 32.2997C174.621 31.7098 174.479 31.0237 174.479 30.2415C174.479 29.4593 174.621 28.7699 174.906 28.1733C175.195 27.5734 175.596 27.1061 176.109 26.7713C176.626 26.4332 177.23 26.2642 177.919 26.2642C178.317 26.2642 178.709 26.3305 179.097 26.4631C179.485 26.5956 179.838 26.8111 180.156 27.1094C180.474 27.4044 180.728 27.7955 180.917 28.2827C181.106 28.7699 181.2 29.3698 181.2 30.0824V30.5795H175.314V29.5653H180.007C180.007 29.1345 179.921 28.75 179.748 28.4119C179.579 28.0739 179.338 27.8071 179.023 27.6115C178.711 27.416 178.343 27.3182 177.919 27.3182C177.452 27.3182 177.047 27.4342 176.706 27.6662C176.368 27.8949 176.108 28.1932 175.925 28.5611C175.743 28.929 175.652 29.3234 175.652 29.7443V30.4205C175.652 30.9972 175.751 31.486 175.95 31.8871C176.152 32.2848 176.432 32.5881 176.79 32.7969C177.148 33.0024 177.564 33.1051 178.038 33.1051C178.347 33.1051 178.625 33.062 178.873 32.9759C179.125 32.8864 179.342 32.7538 179.525 32.5781C179.707 32.3991 179.848 32.1771 179.947 31.9119L181.081 32.2301C180.962 32.6146 180.761 32.9527 180.479 33.2443C180.198 33.5327 179.85 33.7581 179.435 33.9205C179.021 34.0795 178.555 34.1591 178.038 34.1591Z" fill="white"/>
<path d="M182.985 36.8636V26.3636H184.119V27.5767H184.258C184.344 27.4441 184.463 27.2751 184.616 27.0696C184.771 26.8608 184.994 26.6752 185.282 26.5128C185.574 26.3471 185.968 26.2642 186.465 26.2642C187.108 26.2642 187.675 26.425 188.165 26.7465C188.656 27.0679 189.039 27.5237 189.314 28.1136C189.589 28.7036 189.726 29.3996 189.726 30.2017C189.726 31.0104 189.589 31.7114 189.314 32.3047C189.039 32.8947 188.658 33.352 188.17 33.6768C187.683 33.9983 187.121 34.1591 186.485 34.1591C185.994 34.1591 185.602 34.0779 185.307 33.9155C185.012 33.7498 184.785 33.5625 184.626 33.3537C184.467 33.1416 184.344 32.9659 184.258 32.8267H184.158V36.8636H182.985ZM184.138 30.1818C184.138 30.7585 184.223 31.2673 184.392 31.7081C184.561 32.1456 184.808 32.4886 185.133 32.7372C185.458 32.9825 185.855 33.1051 186.326 33.1051C186.816 33.1051 187.226 32.9759 187.554 32.7173C187.885 32.4555 188.134 32.1042 188.3 31.6634C188.469 31.2192 188.553 30.7254 188.553 30.1818C188.553 29.6449 188.47 29.161 188.305 28.7301C188.142 28.2959 187.895 27.9529 187.564 27.701C187.236 27.4458 186.823 27.3182 186.326 27.3182C185.849 27.3182 185.448 27.4392 185.123 27.6811C184.798 27.9197 184.553 28.2545 184.387 28.6854C184.221 29.1129 184.138 29.6117 184.138 30.1818Z" fill="white"/>
<path d="M194.619 34.1591C193.929 34.1591 193.324 33.995 192.804 33.6669C192.287 33.3388 191.882 32.8797 191.591 32.2898C191.302 31.6998 191.158 31.0104 191.158 30.2216C191.158 29.4261 191.302 28.7318 191.591 28.1385C191.882 27.5452 192.287 27.0845 192.804 26.7564C193.324 26.4283 193.929 26.2642 194.619 26.2642C195.308 26.2642 195.911 26.4283 196.428 26.7564C196.949 27.0845 197.353 27.5452 197.641 28.1385C197.933 28.7318 198.079 29.4261 198.079 30.2216C198.079 31.0104 197.933 31.6998 197.641 32.2898C197.353 32.8797 196.949 33.3388 196.428 33.6669C195.911 33.995 195.308 34.1591 194.619 34.1591ZM194.619 33.1051C195.142 33.1051 195.573 32.9709 195.911 32.7024C196.249 32.434 196.499 32.081 196.662 31.6435C196.824 31.206 196.905 30.732 196.905 30.2216C196.905 29.7112 196.824 29.2356 196.662 28.7947C196.499 28.3539 196.249 27.9976 195.911 27.7259C195.573 27.4541 195.142 27.3182 194.619 27.3182C194.095 27.3182 193.664 27.4541 193.326 27.7259C192.988 27.9976 192.738 28.3539 192.575 28.7947C192.413 29.2356 192.332 29.7112 192.332 30.2216C192.332 30.732 192.413 31.206 192.575 31.6435C192.738 32.081 192.988 32.434 193.326 32.7024C193.664 32.9709 194.095 33.1051 194.619 33.1051Z" fill="white"/>
<path d="M205.279 28.0739L204.225 28.3722C204.159 28.1965 204.061 28.0258 203.932 27.8601C203.806 27.6911 203.633 27.5518 203.415 27.4425C203.196 27.3331 202.916 27.2784 202.574 27.2784C202.107 27.2784 201.718 27.3861 201.406 27.6016C201.098 27.8137 200.944 28.0838 200.944 28.4119C200.944 28.7036 201.05 28.934 201.262 29.103C201.474 29.272 201.805 29.4129 202.256 29.5256L203.39 29.804C204.072 29.9697 204.581 30.2233 204.916 30.5646C205.251 30.9027 205.418 31.3385 205.418 31.8722C205.418 32.3097 205.292 32.7008 205.04 33.0455C204.792 33.3902 204.444 33.6619 203.996 33.8608C203.549 34.0597 203.028 34.1591 202.435 34.1591C201.656 34.1591 201.012 33.9901 200.501 33.652C199.991 33.3139 199.668 32.8201 199.532 32.1705L200.645 31.892C200.751 32.303 200.952 32.6113 201.247 32.8168C201.545 33.0223 201.935 33.125 202.415 33.125C202.962 33.125 203.396 33.009 203.718 32.777C204.043 32.5417 204.205 32.2599 204.205 31.9318C204.205 31.6667 204.112 31.4446 203.927 31.2656C203.741 31.0833 203.456 30.9474 203.071 30.858L201.799 30.5597C201.099 30.3939 200.586 30.1371 200.258 29.7891C199.933 29.4377 199.77 28.9986 199.77 28.4716C199.77 28.0407 199.891 27.6596 200.133 27.3281C200.379 26.9967 200.712 26.7365 201.133 26.5476C201.557 26.3587 202.037 26.2642 202.574 26.2642C203.33 26.2642 203.923 26.4299 204.354 26.7614C204.788 27.0928 205.097 27.5303 205.279 28.0739Z" fill="white"/>
<path d="M40.8163 8.28581V33.4218H35.6916V8.28581H40.8163Z" fill="white"/>
<path d="M61.7328 16.4741V33.4775C61.7328 38.7553 57.6247 42 52.5975 42C47.7513 42 44.1306 38.992 43.7825 34.7447L48.8932 34.7725C49.1021 36.5829 50.6897 37.3627 52.7785 37.3627C54.756 37.3627 56.5942 36.3044 56.5942 33.5471V31.3747C55.2852 32.2241 53.6141 32.7255 51.748 32.7255C47.069 32.7255 43.323 28.9377 43.323 24.5789C43.323 19.5099 47.0829 16.1121 51.748 16.1121C53.628 16.1121 55.2852 16.6134 56.5942 17.4629V16.5438L61.7328 16.4741ZM56.6081 26.4867V22.3508C55.5637 20.8329 54.1154 20.3316 52.681 20.3316C50.1605 20.3316 48.4058 22.0166 48.4058 24.5789C48.4058 26.4589 50.1605 28.5199 52.681 28.5199C54.1154 28.506 55.5637 27.9907 56.6081 26.4867Z" fill="white"/>
<path d="M82.1757 24.746C82.1757 29.9821 78.3044 33.7142 73.1101 33.7142C67.874 33.7142 64.0027 29.9821 64.0027 24.746C64.0027 19.5517 67.874 15.75 73.1101 15.75C78.3044 15.75 82.1757 19.5517 82.1757 24.746ZM77.2321 24.746C77.2321 22.2812 75.6167 20.2898 73.1101 20.2898C70.5756 20.2898 68.9602 22.2812 68.9602 24.746C68.9602 27.2805 70.5756 29.1744 73.1101 29.1744C75.6028 29.1605 77.2321 27.2805 77.2321 24.746Z" fill="white"/>
<path d="M113.996 16.502V33.3939L108.969 33.4218V32.4609C107.66 33.3103 105.989 33.8395 104.123 33.8395C99.4436 33.8395 95.6976 29.8707 95.6976 24.9828C95.6976 20.067 99.4575 16.0981 104.123 16.0981C106.003 16.0981 107.66 16.6273 108.969 17.4768V16.5159L113.996 16.502ZM108.969 27.5729V22.3926C107.91 20.8886 106.434 20.4708 104.958 20.4708C102.382 20.4708 100.599 22.5318 100.599 24.9967C100.599 27.4337 102.382 29.4947 104.958 29.4947C106.434 29.4808 107.91 29.0769 108.969 27.5729Z" fill="white"/>
<path d="M134.662 24.2447V33.4218H129.718V24.8435C129.718 22.0862 128.34 20.624 125.889 20.624C124.607 20.624 123.201 21.3621 121.989 22.7825V33.4218H116.934V16.5298H121.989V17.811C123.368 16.7109 124.97 16.1121 126.877 16.1121C131.389 16.1121 134.662 19.2871 134.662 24.2447Z" fill="white"/>
<path d="M33.3521 33.4078H28.13L24.7321 20.7772L17.4211 33.4078H11.5862L22.8661 13.8561L21.0557 7.06034L5.83488 33.4218H0L19.2871 0H24.3979L26.6399 8.29974H31.9178L28.311 14.5663L33.3521 33.4078Z" fill="white"/>
<path d="M155.077 8.28581V33.4218H149.952V32.4609C148.643 33.3103 146.972 33.8395 145.106 33.8395C140.427 33.8395 136.681 29.8707 136.681 24.9549C136.681 20.067 140.441 16.0981 145.106 16.0981C146.986 16.0981 148.643 16.6273 149.952 17.4768V8.27188L155.077 8.28581ZM149.952 27.5869V22.3647C148.88 20.8468 147.39 20.429 145.914 20.429C143.324 20.429 141.527 22.504 141.527 24.9549C141.527 27.4476 143.324 29.5226 145.914 29.5226C147.39 29.5226 148.88 29.1048 149.952 27.5869Z" fill="white"/>
<path d="M94.7785 20.7911C93.6645 20.9304 91.0464 21.0557 89.5146 23.1724V33.4357H84.4595V16.5577H89.5146V17.8249C90.6704 16.8362 92.4111 16.2513 94.7785 16.4881" fill="white"/>
</svg>
